<svg width="20" height="20" viewBox="0 0 20 20" fill="none" xmlns="http://www.w3.org/2000/svg">
<path fill-rule="evenodd" clip-rule="evenodd" d="M15 10.8699V15C15 16.6569 13.6569 18 12 18H5C3.34315 18 2 16.6569 2 15V9C2 7.34315 3.34315 6 5 6H8.55615L10.5562 4H5C2.23858 4 0 6.23858 0 9V15C0 17.7614 2.23858 20 5 20H12C14.7614 20 17 17.7614 17 15V9C17 8.95703 16.9995 8.91419 16.9984 8.87148L15 10.8699Z" fill="#27AE8E"/>
<path d="M19.7725 3.14373C20.0758 2.84044 20.0758 2.33495 19.7725 2.04722L17.9528 0.227468C17.665 -0.0758228 17.1596 -0.0758228 16.8563 0.227468L15.4254 1.6506L18.3416 4.56687L19.7725 3.14373ZM6 11.0837V14H8.91626L17.5173 5.3912L14.601 2.47493L6 11.0837Z" fill="#27AE8E"/>
</svg>
