<svg width="30" height="30" viewBox="0 0 300 300" fill="none" xmlns="http://www.w3.org/2000/svg">
<g clip-path="url(#clip0)">
<rect width="300" height="300" rx="150" fill="white"/>
<g filter="url(#filter0_di)">
<path d="M240.287 282.41C245.211 296.995 261.188 305.099 274.568 297.486C294.562 286.108 311.703 269.868 324.544 249.898C342.542 221.905 351.112 188.102 348.961 153.591C346.81 119.079 334.054 85.7318 312.619 58.581C291.183 31.4302 262.231 11.9494 230.133 3.07862C198.034 -5.79218 164.529 -3.57162 134.676 9.4052C104.823 22.382 80.2412 45.4109 64.64 75.0164C49.0389 104.622 43.2651 139.197 48.1902 173.525C51.7123 198.074 60.5691 221.543 73.9131 242.155C82.6056 255.581 101.298 255.732 112.473 244.288L165.944 189.525C180.555 174.562 205.817 180.315 212.507 200.13L240.287 282.41Z" fill="#233767"/>
</g>
<path d="M38.6656 57.4179L42.4825 41.7322L-76.9999 128.5L-70.8599 136.955L-40.16 179.23L-3.31998 229.96L33.52 280.69L70.36 331.42L106.868 304.908C111.183 275.946 132.093 234.934 139.727 203.563C147.36 172.192 141.718 150.461 119.481 140.782C97.2446 131.103 58.4129 133.474 42.814 118.975C27.215 104.475 34.8488 73.1035 38.6656 57.4179Z" fill="#233767"/>
<path d="M239 256.5L272 236L187.921 366.383L181.341 363.105L148.441 346.715L108.961 327.047L69.4806 307.379L30.0003 287.711L44.0005 256.5C65.4494 246.418 99.4222 214.303 122.529 200.893C145.636 187.483 162.111 187.383 170.298 203.922C178.485 220.461 178.383 253.639 189.885 263.523C201.388 273.406 227.447 263.205 239 256.5Z" fill="#3554A0"/>
<g style="mix-blend-mode:overlay">
<path fill-rule="evenodd" clip-rule="evenodd" d="M190.953 117.5C186.087 120.192 181.577 123.571 177.574 127.574C168.696 136.452 162.887 147.825 160.832 160.046C159.915 165.492 164.478 170 170 170H220H270C275.523 170 280.085 165.492 279.169 160.046C277.113 147.825 271.304 136.452 262.426 127.574C258.424 123.571 253.914 120.192 249.048 117.5C241.757 125.198 231.439 130 220 130C208.561 130 198.243 125.198 190.953 117.5Z" fill="white"/>
<circle cx="220" cy="80" r="40" fill="white"/>
</g>
<g style="mix-blend-mode:overlay">
<path fill-rule="evenodd" clip-rule="evenodd" d="M190.953 117.5C186.087 120.192 181.577 123.571 177.574 127.574C168.696 136.452 162.887 147.825 160.832 160.046C159.915 165.492 164.478 170 170 170H220H270C275.523 170 280.085 165.492 279.169 160.046C277.113 147.825 271.304 136.452 262.426 127.574C258.424 123.571 253.914 120.192 249.048 117.5C241.757 125.198 231.439 130 220 130C208.561 130 198.243 125.198 190.953 117.5Z" fill="white"/>
<circle cx="220" cy="80" r="40" fill="white"/>
</g>
</g>
<defs>
<filter id="filter0_di" x="-50" y="-47" width="445.307" height="406.451" filterUnits="userSpaceOnUse" color-interpolation-filters="sRGB">
<feFlood flood-opacity="0" result="BackgroundImageFix"/>
<feColorMatrix in="SourceAlpha" type="matrix" values="0 0 0 0 0 0 0 0 0 0 0 0 0 0 0 0 0 0 127 0"/>
<feOffset dx="-50"/>
<feColorMatrix type="matrix" values="0 0 0 0 0.380392 0 0 0 0 0.521569 0 0 0 0 0.862745 0 0 0 1 0"/>
<feBlend mode="normal" in2="BackgroundImageFix" result="effect1_dropShadow"/>
<feBlend mode="normal" in="SourceGraphic" in2="effect1_dropShadow" result="shape"/>
<feColorMatrix in="SourceAlpha" type="matrix" values="0 0 0 0 0 0 0 0 0 0 0 0 0 0 0 0 0 0 127 0" result="hardAlpha"/>
<feOffset dx="100" dy="4"/>
<feComposite in2="hardAlpha" operator="arithmetic" k2="-1" k3="1"/>
<feColorMatrix type="matrix" values="0 0 0 0 0 0 0 0 0 0 0 0 0 0 0 0 0 0 0.25 0"/>
<feBlend mode="normal" in2="shape" result="effect2_innerShadow"/>
</filter>
<clipPath id="clip0">
<rect width="300" height="300" rx="150" fill="white"/>
</clipPath>
</defs>
</svg>
