<svg width="43" height="50" viewBox="0 0 43 50" fill="none" xmlns="http://www.w3.org/2000/svg">
<path d="M12.3243 31.2565C8.46381 30.8314 4.98959 33.6161 4.56437 37.4766C4.13915 41.337 6.92396 44.8112 10.7844 45.2365L12.3243 31.2565ZM20.2521 26.1269L15.2796 21.1544L20.2521 26.1269ZM30.8254 18.583C34.708 18.4892 37.7796 15.2657 37.6857 11.383C37.592 7.50035 34.3684 4.42884 30.4858 4.5226L30.8254 18.583ZM10.7844 45.2365C18.2309 46.0567 24.4116 44.7811 29.0376 41.7165C33.6619 38.6529 36.2464 34.0867 36.7338 29.5339C37.1721 25.4395 35.8417 19.6081 30.3994 17.0523C24.6181 14.3373 18.9718 17.4622 15.2796 21.1544L25.2247 31.0995C27.4482 28.8759 26.8064 30.9031 24.4207 29.7828C22.3741 28.8216 22.8305 27.2773 22.7492 28.037C22.7169 28.3382 22.4755 29.193 21.27 29.9915C20.0661 30.7891 17.4129 31.8171 12.3243 31.2565L10.7844 45.2365ZM15.2796 21.1544C15.2185 21.2155 15.6879 20.729 16.739 20.5985C17.8455 20.461 18.8197 20.8192 19.4413 21.2737C20.465 22.0224 20.233 22.6259 20.26 22.2484C20.2623 22.2149 20.285 21.6098 21.4021 20.8089C22.6269 19.9309 25.3774 18.7145 30.8254 18.583L30.4858 4.5226C23.228 4.69786 17.4321 6.34977 13.2077 9.37822C8.87554 12.4839 6.54603 16.8234 6.23094 21.2498C5.94036 25.3322 7.42565 29.9107 11.139 32.6264C13.1055 34.0644 15.6677 34.904 18.4724 34.5557C21.2218 34.2143 23.4997 32.8244 25.2247 31.0995L15.2796 21.1544Z" fill="#233767"/>
<path d="M30.1384 16.5761C32.6351 16.5761 34.6591 14.5521 34.6591 12.0554C34.6591 9.55867 32.6351 7.53467 30.1384 7.53467C27.6417 7.53467 25.6177 9.55867 25.6177 12.0554C25.6177 14.5521 27.6417 16.5761 30.1384 16.5761Z" fill="#F1F3F5"/>
<path d="M12.0556 42.6957C14.5524 42.6957 16.5764 40.6718 16.5764 38.175C16.5764 35.6783 14.5524 33.6543 12.0556 33.6543C9.55891 33.6543 7.53491 35.6783 7.53491 38.175C7.53491 40.6718 9.55891 42.6957 12.0556 42.6957Z" fill="#F1F3F5"/>
</svg>
