<svg width="28" height="28" viewBox="0 0 521 610" fill="none" xmlns="http://www.w3.org/2000/svg">
<g filter="url(#filter0_dddddd)">
<path fill-rule="evenodd" clip-rule="evenodd" d="M168.663 351.963C167.959 351.534 167.261 351.099 166.57 350.655C164.788 349.512 163.05 348.318 161.356 347.076C140.938 332.108 127.386 311.088 120.081 288.266C114.648 271.291 112.67 253.319 113.893 236.098C116.981 192.607 139.819 149.536 183.099 118.435C225.405 88.0332 284.255 70.8932 359.458 69.0728C359.461 69.0727 359.464 69.0726 359.467 69.0726C394.572 68.2274 423.717 96.0671 424.565 131.259C424.813 141.574 422.603 151.377 418.469 160.102C408.501 181.142 387.352 195.917 362.537 196.521C362.534 196.521 362.532 196.521 362.529 196.521C356.756 196.661 351.249 196.914 345.996 197.267C348.591 198.248 351.189 199.347 353.786 200.57C356.912 202.042 359.899 203.629 362.749 205.322C384.421 218.19 398.265 237.146 406.28 257.637C414.67 279.088 416.672 302.222 414.579 321.818C409.78 366.753 384.281 412.236 338.071 442.923C291.848 473.618 229.305 486.921 152.528 478.445C152.525 478.445 152.522 478.445 152.52 478.445C117.611 474.59 92.4289 443.098 96.274 408.106C97.0924 400.658 99.1599 393.652 102.244 387.274C113.651 363.686 138.965 348.691 166.444 351.725C166.446 351.726 166.449 351.726 166.452 351.726C167.193 351.808 167.93 351.887 168.663 351.963ZM60.8281 326.448C47.6308 295.203 43.0232 261.659 45.1864 231.195C49.8064 166.136 83.9429 104.73 142.97 62.3131C199.969 21.3532 273.735 2.0745 357.804 0.0394812C430.948 -1.7311 491.675 56.2715 493.442 129.592C494.238 162.626 482.93 193.134 463.573 216.848C482.584 255.379 486.453 297.628 483.084 329.169C476.058 394.978 439.081 458.685 376.125 500.492C313.14 542.32 233.317 556.838 144.985 547.085C72.2596 539.056 19.7974 473.448 27.8079 400.547C30.9565 371.893 42.9785 346.378 60.8281 326.448ZM314.311 318.115C314.299 318.196 313.783 318.444 312.796 318.613C313.828 318.118 314.322 318.034 314.311 318.115ZM240.916 248.724C241.105 249.077 241.152 249.274 241.128 249.284C241.105 249.295 241.01 249.119 240.916 248.724ZM288.103 303.846C288.152 303.803 288.262 304.173 288.286 305.084C288.067 304.343 288.055 303.888 288.103 303.846Z" fill="#313A50"/>
<path d="M366.146 217.789C410.046 217.789 445.633 182.116 445.633 138.111C445.633 94.1058 410.046 58.4326 366.146 58.4326C322.247 58.4326 286.659 94.1058 286.659 138.111C286.659 182.116 322.247 217.789 366.146 217.789Z" fill="#27AE8E"/>
<path d="M175.373 494.006C219.272 494.006 254.86 458.332 254.86 414.327C254.86 370.322 219.272 334.649 175.373 334.649C131.473 334.649 95.8857 370.322 95.8857 414.327C95.8857 458.332 131.473 494.006 175.373 494.006Z" fill="#27AE8E"/>
</g>
<defs>
<filter id="filter0_dddddd" x="0" y="0" width="520.481" height="610" filterUnits="userSpaceOnUse" color-interpolation-filters="sRGB">
<feFlood flood-opacity="0" result="BackgroundImageFix"/>
<feColorMatrix in="SourceAlpha" type="matrix" values="0 0 0 0 0 0 0 0 0 0 0 0 0 0 0 0 0 0 127 0"/>
<feOffset dy="0.913195"/>
<feGaussianBlur stdDeviation="0.37358"/>
<feColorMatrix type="matrix" values="0 0 0 0 0 0 0 0 0 0 0 0 0 0 0 0 0 0 0.0253031 0"/>
<feBlend mode="normal" in2="BackgroundImageFix" result="effect1_dropShadow"/>
<feColorMatrix in="SourceAlpha" type="matrix" values="0 0 0 0 0 0 0 0 0 0 0 0 0 0 0 0 0 0 127 0"/>
<feOffset dy="2.19453"/>
<feGaussianBlur stdDeviation="0.897764"/>
<feColorMatrix type="matrix" values="0 0 0 0 0 0 0 0 0 0 0 0 0 0 0 0 0 0 0.0363503 0"/>
<feBlend mode="normal" in2="effect1_dropShadow" result="effect2_dropShadow"/>
<feColorMatrix in="SourceAlpha" type="matrix" values="0 0 0 0 0 0 0 0 0 0 0 0 0 0 0 0 0 0 127 0"/>
<feOffset dy="4.13211"/>
<feGaussianBlur stdDeviation="1.69041"/>
<feColorMatrix type="matrix" values="0 0 0 0 0 0 0 0 0 0 0 0 0 0 0 0 0 0 0.045 0"/>
<feBlend mode="normal" in2="effect2_dropShadow" result="effect3_dropShadow"/>
<feColorMatrix in="SourceAlpha" type="matrix" values="0 0 0 0 0 0 0 0 0 0 0 0 0 0 0 0 0 0 127 0"/>
<feOffset dy="7.37098"/>
<feGaussianBlur stdDeviation="3.0154"/>
<feColorMatrix type="matrix" values="0 0 0 0 0 0 0 0 0 0 0 0 0 0 0 0 0 0 0.0536497 0"/>
<feBlend mode="normal" in2="effect3_dropShadow" result="effect4_dropShadow"/>
<feColorMatrix in="SourceAlpha" type="matrix" values="0 0 0 0 0 0 0 0 0 0 0 0 0 0 0 0 0 0 127 0"/>
<feOffset dy="13.7866"/>
<feGaussianBlur stdDeviation="5.63998"/>
<feColorMatrix type="matrix" values="0 0 0 0 0 0 0 0 0 0 0 0 0 0 0 0 0 0 0.0646969 0"/>
<feBlend mode="normal" in2="effect4_dropShadow" result="effect5_dropShadow"/>
<feColorMatrix in="SourceAlpha" type="matrix" values="0 0 0 0 0 0 0 0 0 0 0 0 0 0 0 0 0 0 127 0"/>
<feOffset dy="33"/>
<feGaussianBlur stdDeviation="13.5"/>
<feColorMatrix type="matrix" values="0 0 0 0 0 0 0 0 0 0 0 0 0 0 0 0 0 0 0.09 0"/>
<feBlend mode="normal" in2="effect5_dropShadow" result="effect6_dropShadow"/>
<feBlend mode="normal" in="SourceGraphic" in2="effect6_dropShadow" result="shape"/>
</filter>
</defs>
</svg>
