<svg width="127" height="156" viewBox="0 0 127 156" fill="none" xmlns="http://www.w3.org/2000/svg">
<path fill-rule="evenodd" clip-rule="evenodd" d="M126.832 30.2402C127.099 41.2649 121.385 51.0445 112.649 56.4709C122.403 68.0036 124.68 83.3951 123.475 94.7091C121.606 112.256 111.713 129.702 94.2225 141.346C76.7163 153 53.7151 157.586 26.7341 154.6C10.2661 152.777 -1.60625 137.949 0.216453 121.481C1.31029 111.599 7.08776 103.371 15.0927 98.7651C7.94048 88.57 5.22132 76.0132 6.02397 64.6826C7.2391 47.529 16.2245 30.8748 32.612 19.0699C48.5465 7.59139 70.0083 1.61023 96.113 0.976779C112.677 0.574851 126.43 13.6765 126.832 30.2402ZM97.3866 53.4613C109.809 53.1599 119.636 42.8449 119.334 30.4221C119.033 17.9994 108.718 8.17313 96.295 8.47457C71.1616 9.08445 51.3289 14.8304 36.9958 25.1554C22.3228 35.7252 14.5554 50.3881 13.5052 65.2126C12.5647 78.4895 17.1947 93.2161 28.6158 102.323C17.9006 102.987 8.89237 111.271 7.67093 122.307C6.30391 134.658 15.2082 145.778 27.5592 147.145C53.2751 149.992 74.388 145.54 90.0665 135.103C105.733 124.673 114.388 109.207 116.017 93.9147C117.425 80.7029 113.382 62.4196 97.3209 53.4629L97.3866 53.4613ZM81.8685 93.7644C81.8644 93.7926 81.6833 93.8903 81.3373 93.9732C81.6996 93.7776 81.8726 93.7362 81.8685 93.7644ZM71.321 88.3597C71.2718 88.128 71.2727 87.9892 71.2855 87.9777C71.2982 87.9662 71.3228 88.0821 71.321 88.3597ZM58.4603 69.3557C58.4495 69.361 58.4176 69.2836 58.3972 69.1081C58.4609 69.2627 58.4711 69.3505 58.4603 69.3557Z" fill="white"/>
<ellipse cx="95.6624" cy="30.9677" rx="18.1477" ry="18.2357" fill="#27AE8E"/>
<ellipse cx="31.9637" cy="124.754" rx="18.1537" ry="18.2417" fill="#27AE8E"/>
</svg>
