<svg width="25" height="16" viewBox="0 0 25 16" fill="none" xmlns="http://www.w3.org/2000/svg">
<path fill-rule="evenodd" clip-rule="evenodd" d="M20.2648 9.63324C19.8068 9.6368 19.3661 9.45952 19.0397 9.14053C18.7132 8.82154 18.528 8.38686 18.5244 7.93225C18.5208 7.47751 18.6994 7.04016 19.0208 6.71609C19.3421 6.39215 19.7801 6.20814 20.2381 6.20471C20.6962 6.20116 21.1368 6.37843 21.4633 6.69742C21.7896 7.01642 21.975 7.45109 21.9785 7.90571C21.982 8.36032 21.8035 8.79779 21.4821 9.12174C21.1607 9.44581 20.7228 9.62969 20.2648 9.63324ZM16.9412 6.69869e-05L2.28673 0.112387C1.70056 0.116882 1.10793 0.339631 0.655533 0.795668C0.211221 1.24356 -0.0122145 1.82716 0.000514889 2.41703L0.088533 13.7306C0.0930618 14.3125 0.317469 14.9008 0.768703 15.3418C1.21994 15.7829 1.81595 15.9964 2.41033 16L17.0566 15.8796C17.651 15.8832 18.2354 15.6524 18.6797 15.2046L24.3347 9.50397C25.2314 8.60007 25.2203 7.16156 24.3095 6.27151L18.5666 0.658381C18.1154 0.217355 17.5274 -0.00442836 16.9412 6.69869e-05ZM8.1037 13H7.70584C7.33745 13 7.17536 12.7846 7.21957 12.4L7.49954 10.3077H6.43859C6.12915 10.3077 5.95232 10.1231 6.01126 9.8L6.05547 9.56923C6.12915 9.23077 6.30597 9.06153 6.61542 9.06153H7.67637L7.97108 6.90768H6.85118C6.54174 6.90768 6.35018 6.73847 6.42386 6.39999L6.46806 6.16922C6.54174 5.83076 6.71856 5.66153 7.02801 5.66153H8.13317L8.41314 3.58461C8.47209 3.2 8.69312 3 9.06151 3H9.45936C9.82775 3 9.98984 3.2 9.94563 3.58461L9.66566 5.66153H11.3455L11.6255 3.58461C11.6697 3.2 11.9055 3 12.2738 3H12.657C13.0253 3 13.1874 3.2 13.1432 3.58461L12.8633 5.66153H13.8947C14.2042 5.66153 14.381 5.84615 14.3221 6.16922L14.2779 6.39999C14.2042 6.73847 14.0274 6.90768 13.7179 6.90768H12.7012L12.4065 9.06153H13.4821C13.7916 9.06153 13.9832 9.23077 13.9095 9.56923L13.8653 9.8C13.7916 10.1385 13.6148 10.3077 13.3053 10.3077H12.2296L11.9497 12.4C11.9055 12.7846 11.6697 13 11.3013 13H10.9182C10.5498 13 10.3877 12.7846 10.4319 12.4L10.7119 10.3077H9.03203L8.75206 12.4C8.70785 12.7846 8.47209 13 8.1037 13ZM9.48883 6.90768L9.20886 9.06153H10.8887L11.1687 6.90768H9.48883Z" fill="#233767"/>
</svg>
