<svg width="26" height="26" viewBox="0 0 26 26" fill="none" xmlns="http://www.w3.org/2000/svg">
<circle cx="13" cy="13" r="13" fill="#233767"/>
<path fill-rule="evenodd" clip-rule="evenodd" d="M3.78671 3.82856C1.44646 6.17943 0 9.42079 0 13C0 20.1797 5.8203 26 13 26C20.1797 26 26 20.1797 26 13C26 5.8203 20.1797 0 13 0C9.42076 0 6.17936 1.44649 3.82849 3.78678C5.03129 2.58943 6.45697 1.63911 8.02512 0.989566C9.60235 0.336255 11.2928 0 13 0C20.15 0 26 5.811 26 13C26 16.4478 24.6304 19.7544 22.1924 22.1924C19.7544 24.6304 16.4478 26 13 26C11.2928 26 9.60235 25.6637 8.02512 25.0104C6.44788 24.3571 5.01477 23.3995 3.80761 22.1924C1.36964 19.7544 0 16.4478 0 13C0 9.56205 1.36181 6.26451 3.78671 3.82856ZM5.2 18.2C6.877 20.696 9.75 22.36 13 22.36C14.5415 22.3592 16.0592 21.9794 17.4194 21.2539C18.7796 20.5285 19.9406 19.4797 20.8 18.2C20.761 15.6 15.6 14.17 13 14.17C10.4 14.17 5.239 15.6 5.2 18.2ZM15.7577 5.04228C15.0263 4.31089 14.0343 3.9 13 3.9C11.9657 3.9 10.9737 4.31089 10.2423 5.04228C9.51089 5.77368 9.1 6.76566 9.1 7.8C9.1 8.83434 9.51089 9.82632 10.2423 10.5577C10.9737 11.2891 11.9657 11.7 13 11.7C14.0343 11.7 15.0263 11.2891 15.7577 10.5577C16.4891 9.82632 16.9 8.83434 16.9 7.8C16.9 6.76566 16.4891 5.77368 15.7577 5.04228Z" fill="white"/>
</svg>
