<svg width="23" height="29" viewBox="0 0 23 29" fill="none" xmlns="http://www.w3.org/2000/svg">
<path d="M14.7262 17.3177C14.7255 17.3222 14.6949 17.3406 14.6366 17.3593C14.6977 17.3226 14.7269 17.3132 14.7262 17.3177Z" fill="#233767"/>
<path d="M12.4781 16.0876C12.4757 16.0625 12.4763 16.0482 12.4772 16.0474C12.478 16.0465 12.4792 16.0591 12.4781 16.0876Z" fill="#233767"/>
<path d="M11.0142 12.8398C11.0128 12.8406 11.0102 12.8281 11.0107 12.8001C11.0158 12.825 11.0156 12.839 11.0142 12.8398Z" fill="#233767"/>
<path fill-rule="evenodd" clip-rule="evenodd" d="M22.9984 6.35723C23.0424 8.17766 22.2558 9.82514 20.9843 10.9369C22.3253 12.9686 22.6249 15.417 22.4306 17.2326C22.0876 20.4369 20.2775 23.5811 17.1359 25.6624C13.9929 27.7446 9.92499 28.5237 5.26164 28.0101C2.02741 27.6539 -0.305663 24.7432 0.0505783 21.509C0.228477 19.8939 1.04339 18.5035 2.21751 17.5605C1.25069 15.8331 0.894183 13.8533 1.02178 12.0608C1.24585 8.91289 2.90189 5.89864 5.8465 3.78771C8.70089 1.74144 12.4826 0.717939 16.9664 0.609662C20.2192 0.531111 22.9198 3.10438 22.9984 6.35723ZM21.2315 6.3999C21.2783 8.33809 19.9801 9.99621 18.1884 10.4806C20.3527 12.1849 20.8933 14.9882 20.6732 17.0445C20.3874 19.7145 18.8717 22.3923 16.1597 24.189C13.4468 25.9862 9.82219 26.7343 5.45515 26.2533C3.19119 26.0039 1.55804 23.9664 1.80741 21.7025C1.99975 19.9563 3.25584 18.5853 4.85915 18.164C3.27112 16.5527 2.63714 14.2603 2.78477 12.1863C2.96955 9.59042 4.3357 7.04547 6.87628 5.22418C9.35371 3.44815 12.7527 2.47938 17.009 2.3766C19.286 2.32161 21.1765 4.1229 21.2315 6.3999Z" fill="#233767"/>
<circle cx="16.9106" cy="6.49936" r="3.04297" fill="#27AE8E"/>
<circle cx="6.23048" cy="22.1492" r="3.04396" fill="#27AE8E"/>
</svg>
