<svg width="9" height="10" viewBox="0 0 9 10" fill="none" xmlns="http://www.w3.org/2000/svg">
<path d="M6.5 7.5V6H3V4H6.5V2.5L9 5L6.5 7.5ZM5.5 0C5.76522 0 6.01957 0.105357 6.20711 0.292893C6.39464 0.48043 6.5 0.734784 6.5 1V2H5.5V1H1V9H5.5V8H6.5V9C6.5 9.26522 6.39464 9.51957 6.20711 9.70711C6.01957 9.89464 5.76522 10 5.5 10H1C0.734784 10 0.48043 9.89464 0.292893 9.70711C0.105357 9.51957 0 9.26522 0 9V1C0 0.734784 0.105357 0.48043 0.292893 0.292893C0.48043 0.105357 0.734784 0 1 0H5.5Z" fill="#FF7272"/>
</svg>
