<svg width="22" height="26" viewBox="0 0 22 26" fill="none" xmlns="http://www.w3.org/2000/svg">
<path d="M6.62048 14.7808C3.60117 14.4482 0.883942 16.6262 0.551374 19.6455C0.218806 22.6649 2.39684 25.3821 5.41614 25.7147L6.62048 14.7808ZM10.7403 13.6681L6.85118 9.77904L6.85118 9.77904L10.7403 13.6681ZM16.5209 11.2544C19.5576 11.181 21.9599 8.65988 21.8866 5.6232C21.8132 2.58652 19.2921 0.184253 16.2554 0.257585L16.5209 11.2544ZM5.41614 25.7147C9.74083 26.191 13.5182 25.4689 16.4389 23.5339C19.3583 21.5998 21.0417 18.677 21.3607 15.6968C21.6413 13.0752 20.8145 9.0271 16.9642 7.21888C12.8488 5.28615 9.03132 7.5989 6.85118 9.77904L14.6294 17.5572C15.6608 16.5257 14.5602 18.2425 12.2882 17.1755C11.3141 16.7181 10.8133 15.9806 10.6037 15.4923C10.4001 15.0181 10.4076 14.6715 10.4232 14.526C10.4601 14.181 10.6092 14.2011 10.3637 14.3637C10.1195 14.5256 9.10102 15.054 6.62048 14.7808L5.41614 25.7147ZM6.85118 9.77904C7.01701 9.61321 7.60043 9.12465 8.6257 8.99732C9.69417 8.86463 10.6461 9.20229 11.2931 9.67547C12.4155 10.4963 12.4395 11.4438 12.4225 11.682C12.3864 12.1892 12.1228 12.3074 12.3447 12.1483C12.6509 11.9288 13.7798 11.3206 16.5209 11.2544L16.2554 0.257585C12.0987 0.357962 8.58795 1.30687 5.93574 3.20819C3.19932 5.16988 1.65873 7.97247 1.45027 10.9009C1.26097 13.5603 2.21723 16.6658 4.79981 18.5545C6.17694 19.5616 7.99093 20.1607 9.98136 19.9135C11.9286 19.6716 13.4939 18.6927 14.6294 17.5572L6.85118 9.77904Z" fill="#233767"/>
<path d="M6.40151 16.7688C4.48013 16.5571 2.75099 17.9431 2.53935 19.8645C2.32772 21.7859 3.71374 23.515 5.63511 23.7267L6.40151 16.7688ZM10.7403 13.6681L8.26539 11.1933L8.26539 11.1933L10.7403 13.6681ZM16.4727 9.25496C18.4051 9.2083 19.9338 7.60392 19.8871 5.67149C19.8405 3.73905 18.2361 2.21034 16.3037 2.257L16.4727 9.25496ZM5.63511 23.7267C9.6245 24.1661 12.9002 23.4792 15.3343 21.8666C17.7676 20.2546 19.1177 17.8595 19.372 15.4839C19.6019 13.3365 18.8994 10.3373 16.114 9.02918C13.16 7.64185 10.2367 9.22196 8.26539 11.1933L13.2151 16.143C14.4555 14.9027 14.249 15.8868 13.1384 15.3652C12.1965 14.9229 12.464 14.2511 12.4118 14.7389C12.384 14.9985 12.2 15.5463 11.4683 16.0311C10.7374 16.5153 9.21735 17.0789 6.40151 16.7688L5.63511 23.7267ZM8.26539 11.1933C8.19462 11.264 8.38737 11.0423 8.87219 10.9821C9.38449 10.9185 9.83352 11.0858 10.1125 11.2898C10.5613 11.618 10.407 11.8286 10.4276 11.54C10.4359 11.4225 10.5003 11.0096 11.1795 10.5228C11.9122 9.99753 13.4742 9.32737 16.4727 9.25496L16.3037 2.257C12.4044 2.35116 9.32666 3.23813 7.10101 4.83366C4.82177 6.4676 3.60921 8.73915 3.44522 11.0429C3.29342 13.1755 4.07146 15.5441 5.98041 16.9401C6.98951 17.6781 8.30061 18.1068 9.73488 17.9287C11.1417 17.754 12.3163 17.0419 13.2151 16.143L8.26539 11.1933Z" fill="#F8F8F8"/>
<circle cx="16.2051" cy="5.75578" r="2.81694" fill="#27AE8E"/>
<circle cx="6.31786" cy="20.2434" r="2.81786" fill="#27AE8E"/>
</svg>
