<svg width="36" height="44" viewBox="0 0 36 44" fill="none" xmlns="http://www.w3.org/2000/svg">
<path d="M9.51846 27.1995C5.12674 26.7158 1.17441 29.8838 0.69067 34.2756C0.206935 38.6673 3.37498 42.6196 7.7667 43.1033L9.51846 27.1995ZM27.8494 16.5777C32.2664 16.4711 35.7606 12.8039 35.6539 8.38695C35.5473 3.96996 31.8801 0.475746 27.4631 0.58241L27.8494 16.5777ZM7.7667 43.1033C15.3468 43.9383 21.7499 42.6509 26.5979 39.4391C31.4442 36.2285 34.1834 31.4194 34.7009 26.5852C35.1626 22.2725 33.7761 15.9434 27.8263 13.1492C21.4909 10.1739 15.4234 13.6508 11.6437 17.4306L22.9574 28.7443C25.0663 26.6353 23.9803 29.0196 21.0249 27.6316C19.7826 27.0482 19.1875 26.1268 18.9655 25.6097C18.854 25.3499 18.8147 25.1538 18.8003 25.0456C18.7927 24.9889 18.7908 24.9475 18.7906 24.9219C18.7903 24.8961 18.7917 24.883 18.7918 24.8822C18.792 24.8798 18.7183 25.4667 17.7614 26.1006C16.8063 26.7334 14.4161 27.739 9.51846 27.1995L7.7667 43.1033ZM11.6437 17.4306C11.7011 17.3731 12.3637 16.7554 13.6803 16.5919C15.0597 16.4206 16.2809 16.8622 17.0837 17.4493C17.8115 17.9815 18.1003 18.5402 18.2002 18.7874C18.3111 19.0621 18.3102 19.2353 18.3057 19.2977C18.2859 19.5767 18.1444 19.2398 19.0279 18.6065C20.0338 17.8854 22.5551 16.7056 27.8494 16.5777L27.4631 0.58241C20.1099 0.759979 14.1241 2.43529 9.70571 5.60274C5.16484 8.858 2.68198 13.4432 2.34612 18.1616C2.03811 22.4887 3.6057 27.4147 7.6389 30.3642C9.78035 31.9303 12.5823 32.8512 15.6521 32.4699C18.6592 32.0965 21.122 30.5796 22.9574 28.7443L11.6437 17.4306Z" fill="white"/>
<path d="M9.29949 29.1875C6.0057 28.8247 3.04145 31.2007 2.67865 34.4945C2.31585 37.7883 4.69188 40.7526 7.98567 41.1154L9.29949 29.1875ZM27.8011 14.5783C31.1138 14.4983 33.7345 11.748 33.6545 8.43523C33.5745 5.12249 30.8242 2.50183 27.5114 2.58183L27.8011 14.5783ZM7.98567 41.1154C15.2304 41.9134 21.1319 40.6612 25.4934 37.7718C29.8535 34.8833 32.2595 30.6019 32.7123 26.3723C33.1232 22.5339 31.861 17.2536 26.9762 14.9595C21.8021 12.5296 16.6288 15.2739 13.0579 18.8448L21.5432 27.3301C23.8609 25.0123 23.6691 26.6638 21.8751 25.8213C20.3703 25.1146 20.8868 24.1018 20.7804 25.0951C20.716 25.6973 20.309 26.8119 18.8659 27.768C17.4243 28.7231 14.5325 29.7639 9.29949 29.1875L7.98567 41.1154ZM13.0579 18.8448C12.8787 19.0239 13.1506 18.673 13.9268 18.5766C14.75 18.4744 15.4684 18.7457 15.9031 19.0636C16.5853 19.5625 16.2653 19.7949 16.3108 19.1557C16.3354 18.81 16.522 17.9421 17.8626 16.981C19.2951 15.9541 22.2495 14.7124 27.8011 14.5783L27.5114 2.58183C20.4156 2.75318 14.8628 4.36655 10.871 7.22821C6.78729 10.1557 4.63247 14.2099 4.34107 18.3036C4.07056 22.1039 5.45993 26.293 8.8195 28.7498C10.5929 30.0468 12.8919 30.7973 15.4057 30.4852C17.8723 30.1788 19.9444 28.9288 21.5432 27.3301L13.0579 18.8448Z" fill="#233767"/>
<path d="M22.3887 25.8672C22.3887 26.1433 22.1648 26.3672 21.8887 26.3672C21.6125 26.3672 21.3887 26.1433 21.3887 25.8672C21.3887 25.591 21.6125 25.3672 21.8887 25.3672C22.1648 25.3672 22.3887 25.591 22.3887 25.8672Z" fill="#27AE8E"/>
<circle cx="27.3213" cy="8.58004" r="5.165" fill="white"/>
<path d="M27.3212 3.41504C27.9995 3.41504 28.6712 3.54864 29.2978 3.8082C29.9245 4.06777 30.4938 4.44822 30.9735 4.92783C31.4531 5.40745 31.8335 5.97683 32.0931 6.60348C32.3527 7.23013 32.4862 7.90176 32.4862 8.58004C32.4862 9.94988 31.9421 11.2636 30.9735 12.2322C30.0048 13.2009 28.6911 13.745 27.3212 13.745C26.643 13.745 25.9713 13.6114 25.3447 13.3519C24.718 13.0923 24.1487 12.7119 23.669 12.2322C22.7004 11.2636 22.1562 9.94988 22.1562 8.58004C22.1562 7.2102 22.7004 5.89646 23.669 4.92783C24.6377 3.95921 25.9514 3.41504 27.3212 3.41504ZM25.2552 6.36425V8.08936L28.9431 8.58004L25.2552 9.07071V10.7958L30.4202 8.58004L25.2552 6.36425Z" fill="#27AE8E"/>
<circle cx="9.19208" cy="35.1437" r="5.16669" fill="#27AE8E"/>
<path d="M6.6808 35.1438C6.6808 34.6137 7.1117 34.1828 7.6418 34.1828H8.88181V33.5938H7.6418C7.23072 33.5938 6.83647 33.7571 6.54578 34.0477C6.2551 34.3384 6.0918 34.7327 6.0918 35.1438C6.0918 35.5548 6.2551 35.9491 6.54578 36.2398C6.83647 36.5305 7.23072 36.6938 7.6418 36.6938H8.88181V36.1048H7.6418C7.1117 36.1048 6.6808 35.6739 6.6808 35.1438ZM7.9518 35.4538H10.4318V34.8338H7.9518V35.4538ZM10.7418 33.5938H9.50181V34.1828H10.7418C11.2719 34.1828 11.7028 34.6137 11.7028 35.1438C11.7028 35.6739 11.2719 36.1048 10.7418 36.1048H9.50181V36.6938H10.7418C11.1529 36.6938 11.5472 36.5305 11.8378 36.2398C12.1285 35.9491 12.2918 35.5548 12.2918 35.1438C12.2918 34.7327 12.1285 34.3384 11.8378 34.0477C11.5472 33.7571 11.1529 33.5938 10.7418 33.5938Z" fill="white"/>
<path d="M9.65889 23.0431C10.4179 23.0431 11.0174 22.6526 11.0174 21.9816C11.0174 21.1786 10.2969 21.0026 9.69189 20.7991C9.37839 20.6946 9.08689 20.5901 9.08689 20.3206C9.08689 20.0951 9.31789 19.9411 9.64239 19.9411C9.96139 19.9411 10.2089 20.0786 10.4014 20.2491C10.5169 20.3481 10.6214 20.3206 10.7149 20.2216L10.8414 20.0731C10.9514 19.9576 10.9074 19.8476 10.8029 19.7596C10.5279 19.5066 10.1264 19.3361 9.63139 19.3361C8.86139 19.3361 8.32789 19.7596 8.32789 20.3646C8.32789 21.0136 8.91639 21.2721 9.37289 21.4206C9.85689 21.5856 10.2584 21.6296 10.2584 21.9871C10.2584 22.2346 10.0109 22.4051 9.61489 22.4051C9.30689 22.4051 8.91639 22.2511 8.69089 21.9981C8.58089 21.8936 8.47089 21.9211 8.37189 22.0256L8.24539 22.1741C8.13539 22.2841 8.16839 22.3941 8.26739 22.4931C8.58089 22.8451 9.10339 23.0431 9.65889 23.0431ZM13.0697 20.1556C12.7397 20.1556 12.4812 20.2711 12.2942 20.4581V19.2591C12.2942 19.1161 12.2227 19.0281 12.0742 19.0556L11.7772 19.1106C11.6397 19.1436 11.5682 19.1986 11.5682 19.3251V22.7626C11.5682 22.8946 11.6452 22.9771 11.7772 22.9771H12.0907C12.2227 22.9771 12.2942 22.8946 12.2942 22.7626V21.3876C12.2942 21.0246 12.5362 20.7826 12.8937 20.7826C13.2512 20.7826 13.4712 21.0246 13.4712 21.3876V22.7626C13.4712 22.8946 13.5482 22.9771 13.6802 22.9771H13.9992C14.1312 22.9771 14.2027 22.8946 14.2027 22.7626V21.3326C14.2027 20.6286 13.7517 20.1556 13.0697 20.1556ZM15.4535 21.7671H17.3565C17.5215 21.7671 17.582 21.6956 17.582 21.5416C17.582 21.1566 17.439 20.7936 17.1805 20.5406C16.944 20.3041 16.592 20.1556 16.174 20.1556C15.3435 20.1556 14.733 20.7716 14.733 21.6021C14.733 22.4821 15.404 23.0486 16.229 23.0486C16.6195 23.0486 17.109 22.9166 17.3895 22.6306C17.45 22.5646 17.494 22.4821 17.3895 22.3776L17.2575 22.2456C17.1695 22.1521 17.0925 22.1686 16.9935 22.2456C16.7515 22.4326 16.5095 22.4931 16.295 22.4931C15.8715 22.4931 15.4975 22.2346 15.4535 21.7671ZM16.163 20.6946C16.372 20.6946 16.548 20.7661 16.669 20.8981C16.7735 21.0026 16.8395 21.1456 16.867 21.3161H15.459C15.514 20.9366 15.7835 20.6946 16.163 20.6946ZM19.8313 20.2051C19.7213 20.1721 19.6223 20.1556 19.4848 20.1556C19.1713 20.1556 18.9238 20.3151 18.7478 20.5791V20.4086C18.7478 20.2766 18.6708 20.1996 18.5388 20.1996H18.3298C18.1978 20.1996 18.1208 20.2766 18.1208 20.4086V22.7626C18.1208 22.8946 18.1978 22.9771 18.3298 22.9771H18.6488C18.7808 22.9771 18.8523 22.8946 18.8523 22.7626V21.4536C18.8523 21.0576 19.0558 20.7826 19.4188 20.7826C19.4958 20.7826 19.5838 20.7991 19.6608 20.8266C19.7543 20.8541 19.8423 20.8376 19.8808 20.7001L19.9523 20.4251C19.9908 20.2766 19.9138 20.2326 19.8313 20.2051ZM20.7077 19.7376C20.9662 19.7376 21.1807 19.5286 21.1807 19.2646C21.1807 19.0061 20.9662 18.7916 20.7077 18.7916C20.4437 18.7916 20.2347 19.0061 20.2347 19.2646C20.2347 19.5286 20.4437 19.7376 20.7077 19.7376ZM20.5482 22.9771H20.8672C20.9992 22.9771 21.0707 22.8946 21.0707 22.7626V20.4086C21.0707 20.2766 20.9992 20.1996 20.8672 20.1996H20.5482C20.4162 20.1996 20.3392 20.2766 20.3392 20.4086V22.7626C20.3392 22.8946 20.4162 22.9771 20.5482 22.9771ZM23.6425 22.6361L23.5435 22.4051C23.494 22.3116 23.4335 22.2566 23.307 22.3336C23.23 22.3776 23.1475 22.4161 23.054 22.4161C22.8395 22.4161 22.691 22.3006 22.691 21.9926V20.7496H23.3015C23.4335 20.7496 23.516 20.6726 23.516 20.5406V20.4031C23.516 20.2711 23.4335 20.1996 23.3015 20.1996H22.691V19.4406C22.691 19.2976 22.6195 19.1986 22.471 19.2316L22.174 19.2921C22.0365 19.3196 21.965 19.3801 21.965 19.5066V20.1996H21.6955C21.5635 20.1996 21.481 20.2711 21.481 20.4031V20.5406C21.481 20.6726 21.5635 20.7496 21.6955 20.7496H21.965V22.0586C21.965 22.7406 22.4105 23.0486 22.933 23.0486C23.175 23.0486 23.395 22.9826 23.549 22.8726C23.6205 22.8231 23.703 22.7516 23.6425 22.6361ZM25.8715 22.6361L25.7725 22.4051C25.723 22.3116 25.6625 22.2566 25.536 22.3336C25.459 22.3776 25.3765 22.4161 25.283 22.4161C25.0685 22.4161 24.92 22.3006 24.92 21.9926V20.7496H25.5305C25.6625 20.7496 25.745 20.6726 25.745 20.5406V20.4031C25.745 20.2711 25.6625 20.1996 25.5305 20.1996H24.92V19.4406C24.92 19.2976 24.8485 19.1986 24.7 19.2316L24.403 19.2921C24.2655 19.3196 24.194 19.3801 24.194 19.5066V20.1996H23.9245C23.7925 20.1996 23.71 20.2711 23.71 20.4031V20.5406C23.71 20.6726 23.7925 20.7496 23.9245 20.7496H24.194V22.0586C24.194 22.7406 24.6395 23.0486 25.162 23.0486C25.404 23.0486 25.624 22.9826 25.778 22.8726C25.8495 22.8231 25.932 22.7516 25.8715 22.6361ZM27.5461 23.0486C28.4151 23.0486 29.0476 22.4271 29.0476 21.6021C29.0476 20.7771 28.4151 20.1556 27.5461 20.1556C26.6771 20.1556 26.0391 20.7771 26.0391 21.6021C26.0391 22.4271 26.6771 23.0486 27.5461 23.0486ZM27.5461 22.4106C27.0896 22.4106 26.7651 22.0696 26.7651 21.6021C26.7651 21.1346 27.0951 20.7881 27.5461 20.7881C27.9971 20.7881 28.3216 21.1346 28.3216 21.6021C28.3216 22.0696 27.9971 22.4106 27.5461 22.4106Z" fill="white"/>
<path d="M25.5534 24.24C25.2494 24.24 25.0134 24.372 24.8694 24.564C24.7334 24.36 24.5054 24.24 24.2134 24.24C23.9214 24.24 23.7134 24.372 23.5774 24.56V24.424C23.5774 24.328 23.5214 24.272 23.4254 24.272H23.2734C23.1774 24.272 23.1214 24.328 23.1214 24.424V26.136C23.1214 26.232 23.1774 26.292 23.2734 26.292H23.5054C23.6014 26.292 23.6534 26.232 23.6534 26.136V25.136C23.6534 24.868 23.8294 24.696 24.0814 24.696C24.3334 24.696 24.4814 24.868 24.4814 25.136V26.136C24.4814 26.232 24.5374 26.292 24.6334 26.292H24.8654C24.9614 26.292 25.0134 26.232 25.0134 26.136V25.136C25.0134 24.868 25.1894 24.696 25.4414 24.696C25.6934 24.696 25.8414 24.868 25.8414 25.136V26.136C25.8414 26.232 25.8934 26.292 25.9894 26.292H26.2214C26.3174 26.292 26.3734 26.232 26.3734 26.136V25.096C26.3734 24.584 26.0494 24.24 25.5534 24.24ZM27.2831 25.412H28.6671C28.7871 25.412 28.8311 25.36 28.8311 25.248C28.8311 24.968 28.7271 24.704 28.5391 24.52C28.3671 24.348 28.1111 24.24 27.8071 24.24C27.2031 24.24 26.7591 24.688 26.7591 25.292C26.7591 25.932 27.2471 26.344 27.8471 26.344C28.1311 26.344 28.4871 26.248 28.6911 26.04C28.7351 25.992 28.7671 25.932 28.6911 25.856L28.5951 25.76C28.5311 25.692 28.4751 25.704 28.4031 25.76C28.2271 25.896 28.0511 25.94 27.8951 25.94C27.5871 25.94 27.3151 25.752 27.2831 25.412ZM27.7991 24.632C27.9511 24.632 28.0791 24.684 28.1671 24.78C28.2431 24.856 28.2911 24.96 28.3111 25.084H27.2871C27.3271 24.808 27.5231 24.632 27.7991 24.632Z" fill="white"/>
</svg>
