<svg width="11" height="7" viewBox="0 0 11 7" fill="none" xmlns="http://www.w3.org/2000/svg">
<path d="M6.6 1.75L9.35 -7.21238e-08L9.35 7L6.6 5.25L6.6 1.75ZM9.9 7L9.9 -4.80825e-08L11 0L11 7L9.9 7ZM2.01872e-07 1.75L6.05 1.75L6.05 5.25L4.88824e-08 5.25L2.01872e-07 1.75ZM4.95 3.5C4.95 3.34529 4.89205 3.19692 4.78891 3.08752C4.68576 2.97812 4.54587 2.91667 4.4 2.91667C4.25413 2.91667 4.11424 2.97812 4.01109 3.08752C3.90795 3.19692 3.85 3.34529 3.85 3.5C3.85 3.65471 3.90795 3.80308 4.01109 3.91248C4.11424 4.02187 4.25413 4.08333 4.4 4.08333C4.54587 4.08333 4.68576 4.02187 4.78891 3.91248C4.89205 3.80308 4.95 3.65471 4.95 3.5Z" fill="#233767"/>
</svg>
